HIERARCHY
ROOT Hips
{
    OFFSET   0.000000   0.000000   0.000000
    CHANNELS 6 Xposition Yposition Zposition Zrotation Xrotation Yrotation
    JOINT Chest
    {
        OFFSET   0.000000   8.007230   0.000000
        CHANNELS 3 Zrotation Xrotation Yrotation
        JOINT Chest2
        {
            OFFSET   0.000000  22.077100   0.000000
            CHANNELS 3 Zrotation Xrotation Yrotation
            JOINT Neck
            {
                OFFSET   0.000000  23.254800  -0.000021
                CHANNELS 3 Zrotation Xrotation Yrotation
                JOINT Head
                {
                    OFFSET   0.000000  14.370000   1.956610
                    CHANNELS 3 Zrotation Xrotation Yrotation
                    End Site
                    {
                        OFFSET   0.000000  19.566000   0.000000
                    }
                }
            }
            JOINT LeftCollar
            {
                OFFSET   3.911900  19.017000  -0.467063
                CHANNELS 3 Zrotation Xrotation Yrotation
                JOINT LeftShoulder
                {
                    OFFSET  10.383700   0.000000   0.000000
                    CHANNELS 3 Zrotation Xrotation Yrotation
                    JOINT LeftElbow
                    {
                        OFFSET  26.662100   0.001529   0.000325
                        CHANNELS 3 Zrotation Xrotation Yrotation
                        JOINT LeftWrist
                        {
                            OFFSET  28.869000  -0.000011  -0.000096
                            CHANNELS 3 Zrotation Xrotation Yrotation
                            JOINT LeftFinger0
                            {
                                OFFSET   2.044650  -2.323460   3.252850
                                CHANNELS 3 Zrotation Xrotation Yrotation
                                JOINT LeftFinger01
                                {
                                    OFFSET   3.088130   0.000000   0.000000
                                    CHANNELS 3 Zrotation Xrotation Yrotation
                                    JOINT LeftFinger02
                                    {
                                        OFFSET   2.639460   0.000000   0.000000
                                        CHANNELS 3 Zrotation Xrotation Yrotation
                                        End Site
                                        {
                                            OFFSET   2.582190   0.000000   0.000000
                                        }
                                    }
                                }
                            }
                            JOINT LeftFinger1
                            {
                                OFFSET   8.364480   0.000000   3.252850
                                CHANNELS 3 Zrotation Xrotation Yrotation
                                JOINT LeftFinger11
                                {
                                    OFFSET   4.646930   0.000000   0.000000
                                    CHANNELS 3 Zrotation Xrotation Yrotation
                                    JOINT LeftFinger12
                                    {
                                        OFFSET   2.323460   0.000000   0.000000
                                        CHANNELS 3 Zrotation Xrotation Yrotation
                                        End Site
                                        {
                                            OFFSET   2.273050   0.000000   0.000000
                                        }
                                    }
                                }
                            }
                            JOINT LeftFinger2
                            {
                                OFFSET   8.364480   0.000016   1.078090
                                CHANNELS 3 Zrotation Xrotation Yrotation
                                JOINT LeftFinger21
                                {
                                    OFFSET   5.111620   0.000000   0.000000
                                    CHANNELS 3 Zrotation Xrotation Yrotation
                                    JOINT LeftFinger22
                                    {
                                        OFFSET   2.788160   0.000017   0.000000
                                        CHANNELS 3 Zrotation Xrotation Yrotation
                                        End Site
                                        {
                                            OFFSET   2.727660   0.000000   0.000000
                                        }
                                    }
                                }
                            }
                            JOINT LeftFinger3
                            {
                                OFFSET   7.899780   0.000015  -1.078090
                                CHANNELS 3 Zrotation Xrotation Yrotation
                                JOINT LeftFinger31
                                {
                                    OFFSET   4.646920   0.000000   0.000000
                                    CHANNELS 3 Zrotation Xrotation Yrotation
                                    JOINT LeftFinger32
                                    {
                                        OFFSET   2.323470   0.000000   0.000000
                                        CHANNELS 3 Zrotation Xrotation Yrotation
                                        End Site
                                        {
                                            OFFSET   2.273050   0.000000   0.000000
                                        }
                                    }
                                }
                            }
                            JOINT LeftFinger4
                            {
                                OFFSET   7.435090   0.000000  -3.252850
                                CHANNELS 3 Zrotation Xrotation Yrotation
                                JOINT LeftFinger41
                                {
                                    OFFSET   3.717550   0.000000   0.000000
                                    CHANNELS 3 Zrotation Xrotation Yrotation
                                    JOINT LeftFinger42
                                    {
                                        OFFSET   1.858760   0.000000   0.000000
                                        CHANNELS 3 Zrotation Xrotation Yrotation
                                        End Site
                                        {
                                            OFFSET   1.818440   0.000000   0.000000
                                        }
                                    }
                                }
                            }
                        }
                    }
                }
            }
            JOINT RightCollar
            {
                OFFSET  -3.911900  19.017000  -0.467062
                CHANNELS 3 Zrotation Xrotation Yrotation
                JOINT RightShoulder
                {
                    OFFSET -10.383700   0.000015   0.000000
                    CHANNELS 3 Zrotation Xrotation Yrotation
                    JOINT RightElbow
                    {
                        OFFSET -26.662100   0.001341   0.000385
                        CHANNELS 3 Zrotation Xrotation Yrotation
                        JOINT RightWrist
                        {
                            OFFSET -28.869000   0.000025  -0.000080
                            CHANNELS 3 Zrotation Xrotation Yrotation
                            JOINT RightFinger0
                            {
                                OFFSET  -2.044650  -2.323490   3.252850
                                CHANNELS 3 Zrotation Xrotation Yrotation
                                JOINT RightFinger01
                                {
                                    OFFSET  -3.088130   0.000000   0.000000
                                    CHANNELS 3 Zrotation Xrotation Yrotation
                                    JOINT RightFinger02
                                    {
                                        OFFSET  -2.639460   0.000000   0.000000
                                        CHANNELS 3 Zrotation Xrotation Yrotation
                                        End Site
                                        {
                                            OFFSET  -2.582190   0.000000   0.000000
                                        }
                                    }
                                }
                            }
                            JOINT RightFinger1
                            {
                                OFFSET  -8.364480   0.000000   3.252850
                                CHANNELS 3 Zrotation Xrotation Yrotation
                                JOINT RightFinger11
                                {
                                    OFFSET  -4.646930   0.000000   0.000000
                                    CHANNELS 3 Zrotation Xrotation Yrotation
                                    JOINT RightFinger12
                                    {
                                        OFFSET  -2.323470   0.000000   0.000000
                                        CHANNELS 3 Zrotation Xrotation Yrotation
                                        End Site
                                        {
                                            OFFSET  -2.273050   0.000000   0.000000
                                        }
                                    }
                                }
                            }
                            JOINT RightFinger2
                            {
                                OFFSET  -8.364480   0.000000   1.078090
                                CHANNELS 3 Zrotation Xrotation Yrotation
                                JOINT RightFinger21
                                {
                                    OFFSET  -5.111610   0.000000   0.000000
                                    CHANNELS 3 Zrotation Xrotation Yrotation
                                    JOINT RightFinger22
                                    {
                                        OFFSET  -2.788160   0.000000   0.000000
                                        CHANNELS 3 Zrotation Xrotation Yrotation
                                        End Site
                                        {
                                            OFFSET  -2.727660   0.000000   0.000000
                                        }
                                    }
                                }
                            }
                            JOINT RightFinger3
                            {
                                OFFSET  -7.899780   0.000000  -1.078090
                                CHANNELS 3 Zrotation Xrotation Yrotation
                                JOINT RightFinger31
                                {
                                    OFFSET  -4.646920   0.000000   0.000000
                                    CHANNELS 3 Zrotation Xrotation Yrotation
                                    JOINT RightFinger32
                                    {
                                        OFFSET  -2.323470   0.000000   0.000000
                                        CHANNELS 3 Zrotation Xrotation Yrotation
                                        End Site
                                        {
                                            OFFSET  -2.273050   0.000000   0.000000
                                        }
                                    }
                                }
                            }
                            JOINT RightFinger4
                            {
                                OFFSET  -7.435090   0.000000  -3.252850
                                CHANNELS 3 Zrotation Xrotation Yrotation
                                JOINT RightFinger41
                                {
                                    OFFSET  -3.717550   0.000000   0.000000
                                    CHANNELS 3 Zrotation Xrotation Yrotation
                                    JOINT RightFinger42
                                    {
                                        OFFSET  -1.858770   0.000000   0.000000
                                        CHANNELS 3 Zrotation Xrotation Yrotation
                                        End Site
                                        {
                                            OFFSET  -1.818440   0.000000   0.000000
                                        }
                                    }
                                }
                            }
                        }
                    }
                }
            }
        }
    }
    JOINT LeftHip
    {
        OFFSET   9.783010   0.000000   0.000000
        CHANNELS 3 Zrotation Xrotation Yrotation
        JOINT LeftKnee
        {
            OFFSET   0.000070 -41.789100   0.000028
            CHANNELS 3 Zrotation Xrotation Yrotation
            JOINT LeftAnkle
            {
                OFFSET   0.000087 -41.133200  -0.000100
                CHANNELS 3 Zrotation Xrotation Yrotation
                JOINT LeftToe
                {
                    OFFSET   0.000000  -6.358960  14.674500
                    CHANNELS 3 Zrotation Xrotation Yrotation
                    End Site
                    {
                        OFFSET   0.000000   0.000000   3.913200
                    }
                }
            }
        }
    }
    JOINT RightHip
    {
        OFFSET  -9.783020   0.000000   0.000000
        CHANNELS 3 Zrotation Xrotation Yrotation
        JOINT RightKnee
        {
            OFFSET   0.000044 -41.789100  -0.000870
            CHANNELS 3 Zrotation Xrotation Yrotation
            JOINT RightAnkle
            {
                OFFSET  -0.000090 -41.133200  -0.000245
                CHANNELS 3 Zrotation Xrotation Yrotation
                JOINT RightToe
                {
                    OFFSET   0.000000  -6.358960  14.674500
                    CHANNELS 3 Zrotation Xrotation Yrotation
                    End Site
                    {
                        OFFSET   0.000000   0.000000   3.913200
                    }
                }
            }
        }
    }
}
MOTION
Frames: 4
Frame Time:   0.016667
  7.431980  89.153700  -1.799210  -0.046628 -15.639100   4.612250  -0.844437  10.365300   3.306070  -2.366400  20.661200   6.943710  -7.238640  -0.333642  -0.037876 -11.893300  -0.644727   0.195029  -7.529610  -0.274528   8.883510 -83.312500 -24.367200 -19.825300   0.649713 -14.580000 -73.706200 142.405000 -82.190700 141.436000  36.067400  25.585900 -68.729000 -22.671600   0.010713   0.004527  -6.335820   0.002899   0.000076 -24.945200   3.002040  -6.418220 -20.547400   0.002978  -0.002187 -14.383200   0.001613   0.008121 -26.755100  -4.340060   8.535530 -27.226500   0.003207  -0.002501 -18.132800   0.003778  -0.004799 -23.150500  -3.792350   8.792230 -23.491300   0.004827  -0.003512 -15.645200   0.003733  -0.002920 -22.465500  -4.192390  10.033900 -34.249500   0.009763   0.000604 -22.810100   0.005579   0.003080   5.748300   1.251590   8.274190  78.230200 -24.324800  22.130200  -5.515070 -22.478000  69.471200 -115.186000 -78.424400 -95.867100 -39.934600  31.742200  65.600800  28.125400  -0.004096   0.002243   9.062720  -0.001996   0.003539  16.903600   1.137360   3.739200  13.859800   0.000900  -0.000803   9.701840   0.000737  -0.000609  15.351900  -1.818860  -6.606990  15.455700   0.004043  -0.000540  10.293500   0.002387  -0.001503  21.024600  -2.461820  -6.396410  21.162700   0.005631  -0.001013  14.094300   0.003389  -0.001546  22.913700  -3.233530  -7.602260  34.695000   0.003864  -0.000955  23.106800   0.004947  -0.008387   0.045487  16.851000  -0.997377  -1.902180   0.076230   8.232810  -0.435084  -1.868530   0.765085  -0.000000   0.000000   0.000000  -4.537760  12.871400  -3.858640  -1.887400  11.309400 -15.885900   4.921650  -5.125510   1.716240   0.000000   0.000000   0.000000
  7.456470  89.158700  -1.799180  -0.129540 -15.534200   4.479730  -0.828167  10.320500   3.304300  -2.329100  20.572600   6.935220  -7.202900  -0.336665  -0.037662 -11.834400  -0.650823   0.194931  -7.551230  -0.280965   8.812580 -83.176900 -24.246700 -19.818500   0.695245 -14.727400 -73.622000 142.822000 -82.230600 141.879000  36.159400  25.702500 -68.686600 -22.624000   0.010694   0.004466  -6.312020   0.002747  -0.000000 -25.117900   2.994020  -6.353690 -20.686800   0.003324  -0.001987 -14.480800   0.001978   0.008528 -26.849000  -4.333100   8.488540 -27.581200   0.005648  -0.002743 -18.369100   0.004135  -0.004916 -23.319000  -3.799340   8.737310 -23.659100   0.004883  -0.003724 -15.756900   0.003788  -0.003114 -22.590800  -4.277380  10.174600 -34.455200   0.010154   0.000631 -22.947100   0.005755   0.003299   5.783220   1.253450   8.255630  78.156400 -24.108700  22.104800  -5.593680 -22.508500  69.388000 -114.110000 -78.478400 -94.814200 -39.713100  31.654400  65.640400  28.270800  -0.003987   0.002213   9.135400  -0.001873   0.003650  16.957900   1.118210   3.660730  13.903200   0.001038  -0.000755   9.732270   0.000842  -0.000550  15.546700  -1.898550  -6.804420  15.657400   0.004292  -0.000645  10.427800   0.002566  -0.001376  21.115200  -2.551620  -6.588310  21.259900   0.006011  -0.000875  14.159100   0.003655  -0.001550  22.908200  -3.233240  -7.602640  34.685300   0.004232  -0.000867  23.100400   0.005347  -0.008742   0.068742  16.730400  -0.962974  -1.910700   0.100927   8.249300  -0.419018  -1.907670   0.829781  -0.000000   0.000000   0.000000  -4.512210  12.796300  -3.861060  -1.893490  11.199900 -15.887000   4.924880  -5.040520   1.827070   0.000000   0.000000   0.000000
  7.473790  89.164800  -1.799170  -0.216974 -15.410300   4.338960  -0.812815  10.261700   3.315350  -2.295040  20.455900   6.952500  -7.156340  -0.323361  -0.037490 -11.757700  -0.625269   0.154987  -7.594290  -0.276627   8.688880 -82.930000 -24.069500 -19.777800   0.817228 -14.891000 -73.457500 142.658000 -82.285700 141.710000  36.618300  26.206700 -68.795100 -22.535100   0.010671   0.004454  -6.267530   0.002598  -0.000099 -25.383400   3.013020  -6.319500 -20.905600   0.003442  -0.001783 -14.633900   0.002177   0.008922 -27.197400  -4.326530   8.384200 -28.245300   0.008165  -0.005156 -18.811400   0.005639  -0.005027 -23.859900  -3.844850   8.606540 -23.838800   0.004295  -0.004055 -15.876600   0.003550  -0.003221 -22.870400  -4.420050  10.371600 -34.904200   0.010736   0.000643 -23.246200   0.006117   0.003417   5.831990   1.241380   8.197340  78.035900 -23.854600  22.003000  -5.631200 -22.573600  69.286100 -113.303000 -78.567900 -94.119200 -39.565900  31.838300  65.757300  28.599300  -0.003916   0.002228   9.299610  -0.001729   0.003703  17.082600   1.078000   3.493250  14.002400   0.001128  -0.000730   9.801670   0.000916  -0.000525  15.966500  -2.043790  -7.119930  16.090000   0.004429  -0.000708  10.715900   0.002668  -0.001306  21.489300  -2.724150  -6.887820  21.649800   0.006215  -0.000805  14.418800   0.003800  -0.001547  23.248200  -3.259210  -7.569670  35.195000   0.005576  -0.000823  23.439900   0.005859  -0.009115   0.098409  16.608400  -0.950432  -1.918320   0.095297   8.284090  -0.402238  -1.929410   0.902578   0.000000   0.000000  -0.000000  -4.470990  12.706900  -3.850540  -1.902800  11.077000 -15.876700   4.920270  -4.952800   1.919910  -0.000000   0.000000  -0.000000
  7.480990  89.171500  -1.799160  -0.307727 -15.274800   4.192730  -0.802356  10.194600   3.341370  -2.273470  20.321800   6.999890  -7.096210  -0.295870  -0.036859 -11.658900  -0.572505   0.065049  -7.625260  -0.269249   8.546280 -82.591200 -23.832900 -19.691800   0.900947 -14.987900 -73.347800 142.076000 -82.437400 141.078000  37.439600  27.163100 -69.201700 -22.410900   0.010647   0.004450  -6.205440   0.002452  -0.000216 -25.840900   3.045320  -6.250950 -21.278900   0.003706  -0.001672 -14.895200   0.002807   0.009309 -27.465100  -4.297990   8.207470 -29.694300   0.018064  -0.013837 -19.776400   0.014787  -0.005086 -24.669100  -3.885380   8.393110 -24.364500   0.003708  -0.005523 -16.226800   0.003311  -0.003562 -23.391500  -4.642830  10.614400 -35.728000   0.013270   0.000645 -23.794900   0.007958   0.003791   5.888940   1.224730   8.105750  77.886500 -23.548600  21.839700  -5.679510 -22.697500  69.137700 -111.826000 -78.760400 -92.916400 -39.651600  32.440200  66.274900  29.087100  -0.003887   0.002327   9.543520  -0.001575   0.003861  17.246500   1.049650   3.374970  14.135900   0.001435  -0.000649   9.895110   0.001188  -0.000459  16.527100  -2.236590  -7.507360  16.669400   0.004862  -0.000730  11.101800   0.002995  -0.001079  22.135600  -2.961390  -7.250830  22.318700   0.006851  -0.000589  14.864300   0.004258  -0.001527  24.071200  -3.376620  -7.537400  36.436600   0.013533  -0.000686  24.266800   0.007897  -0.009502   0.134663  16.479000  -0.947925  -1.923850   0.080767   8.323330  -0.386103  -1.944710   0.983316  -0.000000   0.000000  -0.000000  -4.421710  12.604900  -3.839850  -1.911530  10.949200 -15.846000   4.905290  -4.862680   1.991640  -0.000000   0.000000   0.000000
